<svg xmlns="http://www.w3.org/2000/svg" xmlns:xlink="http://www.w3.org/1999/xlink"><defs><style>
    .sprite-symbol-usage {display: none;}
    .sprite-symbol-usage:target {display: inline;}
  </style><symbol fill="none" stroke="currentColor" stroke-width="2" stroke-linecap="round" stroke-linejoin="round" class="feather feather-bell" viewBox="0 0 24 24" id="bell"><path d="M18 8A6 6 0 006 8c0 7-3 9-3 9h18s-3-2-3-9M13.73 21a2 2 0 01-3.46 0" /></symbol><symbol viewBox="0 0 30 30" id="facebook"><g fill="none" fill-rule="evenodd"><path d="M30 14.986c0 7.861-6.036 14.32-13.704 14.935-.422.079-.852.079-1.275.079-1.124 0-2.212-.115-3.25-.344C5.033 28.138 0 22.138 0 14.986 0 6.702 6.737 0 15.021 0S30 6.702 30 14.986" fill="#43464A" /><path d="M16.51 11.875c.2-.271.608-.472 1.184-.472a6.11 6.11 0 011.792.28L20 8.542C18.947 8.122 17.87 8 16.748 8c-1.121 0-1.999.2-2.713.658-.714.465-1.184.972-1.454 1.716-.275.643-.407 1.773-.407 3.16v1.237H10v3.596h2.174v11.29c.909.229 1.861.343 2.845.343.37 0 .745 0 1.115-.079V18.367h2.882v-3.596h-2.882v-1.158c0-.887.107-1.438.376-1.738" fill="#FFFFFE" /></g></symbol><symbol viewBox="0 0 30 30" id="google"><path d="M0 15C0 6.729 6.729 0 15 0c3.34 0 6.502 1.075 9.143 3.108l-3.485 4.528A9.196 9.196 0 0015 5.714C9.88 5.714 5.714 9.88 5.714 15c0 5.12 4.166 9.286 9.286 9.286 4.124 0 7.628-2.702 8.836-6.429H15v-5.714h15V15c0 8.271-6.729 15-15 15S0 23.271 0 15z" fill="#43464A" fill-rule="nonzero" /></symbol><symbol fill="none" stroke="currentColor" stroke-width="2" stroke-linecap="round" stroke-linejoin="round" class="feather feather-settings" viewBox="0 0 24 24" id="settings"><circle cx="12" cy="12" r="3" /><path d="M19.4 15a1.65 1.65 0 00.33 1.82l.06.06a2 2 0 010 2.83 2 2 0 01-2.83 0l-.06-.06a1.65 1.65 0 00-1.82-.33 1.65 1.65 0 00-1 1.51V21a2 2 0 01-2 2 2 2 0 01-2-2v-.09A1.65 1.65 0 009 19.4a1.65 1.65 0 00-1.82.33l-.06.06a2 2 0 01-2.83 0 2 2 0 010-2.83l.06-.06a1.65 1.65 0 00.33-1.82 1.65 1.65 0 00-1.51-1H3a2 2 0 01-2-2 2 2 0 012-2h.09A1.65 1.65 0 004.6 9a1.65 1.65 0 00-.33-1.82l-.06-.06a2 2 0 010-2.83 2 2 0 012.83 0l.06.06a1.65 1.65 0 001.82.33H9a1.65 1.65 0 001-1.51V3a2 2 0 012-2 2 2 0 012 2v.09a1.65 1.65 0 001 1.51 1.65 1.65 0 001.82-.33l.06-.06a2 2 0 012.83 0 2 2 0 010 2.83l-.06.06a1.65 1.65 0 00-.33 1.82V9a1.65 1.65 0 001.51 1H21a2 2 0 012 2 2 2 0 01-2 2h-.09a1.65 1.65 0 00-1.51 1z" /></symbol><symbol fill="none" stroke="currentColor" stroke-width="2" stroke-linecap="round" stroke-linejoin="round" class="feather feather-user" viewBox="0 0 24 24" id="user"><path d="M20 21v-2a4 4 0 00-4-4H8a4 4 0 00-4 4v2" /><circle cx="12" cy="7" r="4" /></symbol></defs><use id="bell-usage" xlink:href="#bell" class="sprite-symbol-usage" /><use id="facebook-usage" xlink:href="#facebook" class="sprite-symbol-usage" /><use id="google-usage" xlink:href="#google" class="sprite-symbol-usage" /><use id="settings-usage" xlink:href="#settings" class="sprite-symbol-usage" /><use id="user-usage" xlink:href="#user" class="sprite-symbol-usage" /></svg>